{
	"asset":{
		"generator":"Khronos glTF Blender I/O v5.2.40",
		"version":"2.0"
	},
	"extensionsUsed":[
		"KHR_materials_unlit"
	],
	"scene":0,
	"scenes":[
		{
			"name":"Scene",
			"nodes":[
				0,
				1,
				2
			]
		}
	],
	"nodes":[
		{
			"mesh":0,
			"name":"obj1"
		},
		{
			"mesh":1,
			"name":"obj2"
		},
		{
			"mesh":2,
			"name":"pine1"
		}
	],
	"materials":[
		{
			"name":"mat1",
			"pbrMetallicRoughness":{
				"baseColorTexture":{
					"index":0
				}
			}
		},
		{
			"extensions":{
				"KHR_materials_unlit":{}
			},
			"name":"mat2",
			"pbrMetallicRoughness":{
				"baseColorTexture":{
					"index":1
				},
				"metallicFactor":0,
				"roughnessFactor":0.9
			}
		},
		{
			"alphaMode":"MASK",
			"doubleSided":true,
			"name":"pine",
			"normalTexture":{
				"index":2
			},
			"pbrMetallicRoughness":{
				"baseColorTexture":{
					"index":3
				},
				"roughnessFactor":0.8805029988288879
			}
		}
	],
	"meshes":[
		{
			"name":"obj1",
			"primitives":[
				{
					"attributes":{
						"POSITION":0,
						"NORMAL":1,
						"TEXCOORD_0":2
					},
					"indices":3,
					"material":0
				}
			]
		},
		{
			"name":"obj2",
			"primitives":[
				{
					"attributes":{
						"POSITION":4,
						"NORMAL":5,
						"TEXCOORD_0":6
					},
					"indices":7,
					"material":1
				}
			]
		},
		{
			"name":"pine1",
			"primitives":[
				{
					"attributes":{
						"POSITION":8,
						"NORMAL":9,
						"TEXCOORD_0":10,
						"COLOR_0":11
					},
					"indices":12,
					"material":2
				}
			]
		}
	],
	"textures":[
		{
			"sampler":0,
			"source":0
		},
		{
			"sampler":0,
			"source":1
		},
		{
			"sampler":0,
			"source":2
		},
		{
			"sampler":0,
			"source":3
		}
	],
	"images":[
		{
			"mimeType":"image/jpeg",
			"name":"Image_2",
			"uri":"Image_2.jpg"
		},
		{
			"mimeType":"image/jpeg",
			"name":"Image_3",
			"uri":"Image_3.jpg"
		},
		{
			"mimeType":"image/jpeg",
			"name":"Image_1",
			"uri":"Image_1.jpg"
		},
		{
			"mimeType":"image/png",
			"name":"Image_0",
			"uri":"Image_0.png"
		}
	],
	"accessors":[
		{
			"bufferView":0,
			"componentType":5126,
			"count":94,
			"max":[
				27.16020393371582,
				1.8781054019927979,
				27.160207748413086
			],
			"min":[
				-27.161746978759766,
				-0.5115938782691956,
				-27.160207748413086
			],
			"type":"VEC3"
		},
		{
			"bufferView":1,
			"componentType":5126,
			"count":94,
			"type":"VEC3"
		},
		{
			"bufferView":2,
			"componentType":5126,
			"count":94,
			"type":"VEC2"
		},
		{
			"bufferView":3,
			"componentType":5123,
			"count":432,
			"type":"SCALAR"
		},
		{
			"bufferView":4,
			"componentType":5126,
			"count":439,
			"max":[
				70.63887023925781,
				70.63887023925781,
				70.63887023925781
			],
			"min":[
				-70.63887023925781,
				-70.63887023925781,
				-70.63887023925781
			],
			"type":"VEC3"
		},
		{
			"bufferView":5,
			"componentType":5126,
			"count":439,
			"type":"VEC3"
		},
		{
			"bufferView":6,
			"componentType":5126,
			"count":439,
			"type":"VEC2"
		},
		{
			"bufferView":7,
			"componentType":5123,
			"count":2280,
			"type":"SCALAR"
		},
		{
			"bufferView":8,
			"componentType":5126,
			"count":48508,
			"max":[
				27.392446517944336,
				9.972536087036133,
				23.43572235107422
			],
			"min":[
				-24.004972457885742,
				0.016935179010033607,
				-22.981050491333008
			],
			"type":"VEC3"
		},
		{
			"bufferView":9,
			"componentType":5126,
			"count":48508,
			"type":"VEC3"
		},
		{
			"bufferView":10,
			"componentType":5126,
			"count":48508,
			"type":"VEC2"
		},
		{
			"bufferView":11,
			"componentType":5123,
			"count":48508,
			"normalized":true,
			"type":"VEC4"
		},
		{
			"bufferView":12,
			"componentType":5123,
			"count":133200,
			"type":"SCALAR"
		}
	],
	"bufferViews":[
		{
			"buffer":0,
			"byteLength":1128,
			"byteOffset":0,
			"target":34962
		},
		{
			"buffer":0,
			"byteLength":1128,
			"byteOffset":1128,
			"target":34962
		},
		{
			"buffer":0,
			"byteLength":752,
			"byteOffset":2256,
			"target":34962
		},
		{
			"buffer":0,
			"byteLength":864,
			"byteOffset":3008,
			"target":34963
		},
		{
			"buffer":0,
			"byteLength":5268,
			"byteOffset":3872,
			"target":34962
		},
		{
			"buffer":0,
			"byteLength":5268,
			"byteOffset":9140,
			"target":34962
		},
		{
			"buffer":0,
			"byteLength":3512,
			"byteOffset":14408,
			"target":34962
		},
		{
			"buffer":0,
			"byteLength":4560,
			"byteOffset":17920,
			"target":34963
		},
		{
			"buffer":0,
			"byteLength":582096,
			"byteOffset":22480,
			"target":34962
		},
		{
			"buffer":0,
			"byteLength":582096,
			"byteOffset":604576,
			"target":34962
		},
		{
			"buffer":0,
			"byteLength":388064,
			"byteOffset":1186672,
			"target":34962
		},
		{
			"buffer":0,
			"byteLength":388064,
			"byteOffset":1574736,
			"target":34962
		},
		{
			"buffer":0,
			"byteLength":266400,
			"byteOffset":1962800,
			"target":34963
		}
	],
	"samplers":[
		{
			"magFilter":9729,
			"minFilter":9987
		}
	],
	"buffers":[
		{
			"byteLength":2229200,
			"uri":"newtwscene.bin"
		}
	]
}
